<?xml version="1.0" encoding="UTF-8" standalone="no"?>
<svg xmlns="http://www.w3.org/2000/svg" version="1.1" width="1000" height="1000" 
		viewBox="-500 -500 1000 1000" 
		preserveAspectRatio="meet" > 
		<g style="fill:none;stroke:black;stroke-width:10;stroke-opacity:1" ><g transform="translate(0,0) skewY(1.8462334367932) " >
<polygon points="100.0 -2.2043642384652e-13 -100.0 1.1021821192326e-13 100.0 -7.3478807948841e-14 5.5109105961631e-14 100.0 30.901699437495 -95.105651629515 -100.0 3.6739403974421e-14 -22.252093395631 97.492791218182 70.710678118655 70.710678118655 100.0 -2.4492935982947e-14" />
<g transform="translate(0,0) translate(-100.0,3.6739403974421e-14) translate(-0.90669841505587,9.8950248770416) " >
<polygon points="100.0 -2.4492935982947e-14" />
<g transform="translate(-88.177763183988,-47.166535593241) translate(0,0) " >
<circle cx="0" cy="0" r="100" />
</g>
</g>
<g transform="translate(0,0) translate(0,0) translate(2.5260484497994,5.7848758995533) scale(3.943118294701,8.1626103632152) rotate(1.0361882519599) " >
<polygon points="100.0 -4.8985871965894e-14 100.0 -2.4492935982947e-14" />
</g>
</g>
</g></svg>