<?xml version="1.0" encoding="UTF-8" standalone="no"?>
<svg version="1.1" width="1000" height="1000" 
		viewBox="-500 -500 1000 1000" 
		preserveAspectRatio="meet" > 
		<g style="fill:none;stroke:black;stroke-width:10;stroke-opacity:1" ><g transform="translate(14.601101679727,0) skewY(3.0643141347893) rotate(6.1808631201126) skewY(2.5355267125564) translate(5.5208960548043,-1.9731279183179) translate(4.9515071231872,-0.89480237103999) " >
<line x1="0" y1="0" x2="100" y2="0" />
<g transform="translate(0,0) translate(9.0212345588952,0) " >
<polygon points="100.0 -4.8985871965894e-14 100.0 -2.4492935982947e-14" />
<g transform="translate(88.812830997631,0) translate(0,0) skewY(0.61585545820039) translate(-9.5868276804686,0.11109974235296) " >
<line x1="0" y1="0" x2="100" y2="0" />
</g>
</g>
<g transform="translate(-80.901699437495,58.778525229247) translate(4.6546708326787,0) skewX(1.8794971627495) " >
<polygon points="100.0 -1.7145055188063e-13 -100.0 8.5725275940315e-14 -50.0 86.602540378444 -4.2862637970157e-14 -100.0 -80.901699437495 58.778525229247 50.0 86.602540378444 100.0 -2.4492935982947e-14" />
</g>
<g transform="translate(0,0) translate(8.1718166358769,0) " >
<polygon points="100.0 -4.8985871965894e-14 100.0 -2.4492935982947e-14" />
</g>
</g>
</g></svg>