<?xml version="1.0" encoding="UTF-8" standalone="no"?>
<svg xmlns="http://www.w3.org/2000/svg" version="1.1" width="1000" height="1000" 
		viewBox="-500 -500 1000 1000" 
		preserveAspectRatio="meet" > 
		<g style="fill:none;stroke:black;stroke-width:10;stroke-opacity:1" ><g transform="translate(5.5109105961631e-14,100.0) skewX(6.1803131565416) " >
<polygon points="100.0 -2.2043642384652e-13 -100.0 1.1021821192326e-13 100.0 -7.3478807948841e-14 5.5109105961631e-14 100.0 30.901699437495 -95.105651629515 -100.0 3.6739403974421e-14 -22.252093395631 97.492791218182 70.710678118655 70.710678118655 100.0 -2.4492935982947e-14" />
<g transform="translate(100.0,-1.4695761589768e-13) translate(-100.0,3.6739403974421e-14) translate(-8.0078663211316,8.2895021419972) scale(3.8096628058702,-8.9221875742078) " >
<polygon points="100.0 -1.4695761589768e-13 100.0 -7.3478807948841e-14 100.0 -4.8985871965894e-14 -100.0 3.6739403974421e-14 30.901699437495 95.105651629515 100.0 -2.4492935982947e-14" />
<g transform="translate(0,0) translate(0,0) " >
<circle cx="0" cy="0" r="100" />
</g>
</g>
</g>
</g></svg>