<?xml version="1.0" encoding="UTF-8" standalone="no"?>
<svg xmlns="http://www.w3.org/2000/svg" version="1.1" width="1000" height="1000" 
		viewBox="-500 -500 1000 1000" 
		preserveAspectRatio="meet" > 
		<g style="fill:none;stroke:black;stroke-width:10;stroke-opacity:1" ><g transform="translate(0,0) " >
<polygon points="100.0 -7.3478807948841e-14 -100.0 3.6739403974421e-14 100.0 -2.4492935982947e-14" />
<g transform="translate(-100.0,6.1232339957368e-14) translate(-100.0,3.6739403974421e-14) translate(-1.706713642925,9.5031600445509) rotate(2.7774687068459) skewX(4.7908495516224) translate(6.3275601807982,-5.6396433431655) scale(3.2249463163316,-0.55727630853653) translate(5.3015332482755,4.3968007247895) translate(-1.9761596992612,5.712267998606) skewX(3.5483595563783) skewX(5.4867226174373) scale(6.967940563336,-5.933275334537) " >
<polygon points="100.0 -1.2246467991474e-13 -100.0 6.1232339957368e-14 -50.0 -86.602540378444 3.0616169978684e-14 100.0 100.0 -2.4492935982947e-14" />
<g transform="translate(51.996647380292,0) translate(0,0) " >
<line x1="0" y1="0" x2="100" y2="0" />
</g>
</g>
<g transform="translate(72.980084968731,0) translate(0,0) rotate(1.1954579777489) rotate(5.3501973968996) " >
<line x1="0" y1="0" x2="100" y2="0" />
<g transform="translate(16.548143140972,0) translate(38.219956215471,0) " >
<line x1="0" y1="0" x2="100" y2="0" />
</g>
</g>
</g>
</g></svg>