<?xml version="1.0" encoding="UTF-8" standalone="no"?>
<svg version="1.1" width="1000" height="1000" 
		viewBox="-500 -500 1000 1000" 
		preserveAspectRatio="meet" > 
		<g style="fill:none;stroke:black;stroke-width:10;stroke-opacity:1" ><g transform="translate(85.656092502177,0) translate(6.5365643333644,-8.7951142527163) translate(-9.6622977219522,-9.7505990602076) translate(9.8713889624923,-2.7253190800548) skewY(0.20328804134004) skewY(5.7943394954636) " >
<line x1="0" y1="0" x2="100" y2="0" />
<g transform="translate(0,0) translate(73.556317947805,0) " >
<polygon points="100.0 -1.9594348786358e-13 100.0 -9.7971743931788e-14 -50.0 -86.602540378444 100.0 -4.8985871965894e-14 -80.901699437495 -58.778525229247 -50.0 86.602540378444 62.348980185873 78.183148246803 100.0 -2.4492935982947e-14" />
<g transform="translate(0,0) translate(0,0) " >
<circle cx="0" cy="0" r="100" />
</g>
<g transform="translate(-100.0,6.1232339957368e-14) translate(0,0) " >
<polygon points="100.0 -2.4492935982947e-13 100.0 -1.2246467991474e-13 -50.0 86.602540378444 -100.0 6.1232339957368e-14 100.0 -4.8985871965894e-14 -50.0 -86.602540378444 -90.096886790242 43.388373911756 3.0616169978684e-14 100.0 76.604444311898 64.278760968654 100.0 -2.4492935982947e-14" />
</g>
<g transform="translate(100.0,-2.4492935982947e-14) translate(0,0) " >
<polygon points="100.0 -2.4492935982947e-14" />
</g>
</g>
</g>
</g></svg>