<?xml version="1.0" encoding="UTF-8" standalone="no"?>
<svg version="1.1" width="1000" height="1000" 
		viewBox="-500 -500 1000 1000" 
		preserveAspectRatio="meet" > 
		<g style="fill:none;stroke:black;stroke-width:10;stroke-opacity:1" ><g transform="translate(0,0) " >
<polygon points="100.0 -1.9594348786358e-13 100.0 -9.7971743931788e-14 -50.0 -86.602540378444 100.0 -4.8985871965894e-14 -80.901699437495 -58.778525229247 -50.0 86.602540378444 62.348980185873 78.183148246803 100.0 -2.4492935982947e-14" />
<g transform="translate(75.923351990059,0) translate(0,0) translate(-1.5150808356702,2.9436316341162) " >
<line x1="0" y1="0" x2="100" y2="0" />
</g>
<g transform="translate(8.7742973584682,0) translate(-50.0,86.602540378444) " >
<line x1="0" y1="0" x2="100" y2="0" />
</g>
<g transform="translate(-100.0,3.6739403974421e-14) translate(100.0,-1.9594348786358e-13) " >
<polygon points="100.0 -1.4695761589768e-13 100.0 -7.3478807948841e-14 100.0 -4.8985871965894e-14 -100.0 3.6739403974421e-14 30.901699437495 95.105651629515 100.0 -2.4492935982947e-14" />
</g>
</g>
</g></svg>