<?xml version="1.0" encoding="UTF-8" standalone="no"?>
<svg xmlns="http://www.w3.org/2000/svg" version="1.1" width="1000" height="1000" 
		viewBox="-500 -500 1000 1000" 
		preserveAspectRatio="meet" > 
		<g style="fill:none;stroke:black;stroke-width:10;stroke-opacity:1" ><g transform="translate(0,0) rotate(2.9273019790431) skewX(6.2119084712418) skewY(3.714054356929) scale(6.3365291245282,4.181216545403) rotate(1.6297069903976) scale(-0.75823768973351,3.7172141857445) skewY(5.5452785877743) scale(-0.045353155583143,0.078680049628019) " >
<circle cx="0" cy="0" r="100" />
<g transform="translate(0,0) translate(65.540363600804,-75.527880541389) rotate(6.1290033354416) translate(-8.7914552912116,3.8446699269116) skewX(4.3700735024624) scale(5.3424602281302,-4.2964429035783) translate(4.7168404888362,7.2042055707425) rotate(0.16636743858017) " >
<polygon points="100.0 -9.7971743931788e-14 100.0 -4.8985871965894e-14 -50.0 86.602540378444 100.0 -2.4492935982947e-14" />
</g>
<g transform="translate(0,0) translate(0,0) " >
<polygon points="100.0 -2.2043642384652e-13 -100.0 1.1021821192326e-13 100.0 -7.3478807948841e-14 5.5109105961631e-14 100.0 30.901699437495 -95.105651629515 -100.0 3.6739403974421e-14 -22.252093395631 97.492791218182 70.710678118655 70.710678118655 100.0 -2.4492935982947e-14" />
</g>
</g>
</g></svg>