<?xml version="1.0" encoding="UTF-8" standalone="no"?>
<svg version="1.1" width="1000" height="1000" 
		viewBox="-500 -500 1000 1000" 
		preserveAspectRatio="meet" > 
		<g style="fill:none;stroke:black;stroke-width:10;stroke-opacity:1" ><g transform="translate(57.256178371608,0) " >
<line x1="0" y1="0" x2="100" y2="0" />
<g transform="translate(-98.735727158487,-15.851062503339) translate(39.655294502154,0) skewY(5.8879794597612) scale(6.2714569084346,4.974216055125) translate(3.6386935599148,-9.7324810829014) " >
<circle cx="0" cy="0" r="100" />
</g>
<g transform="translate(94.738621743828,32.009272876463) translate(83.60987668857,0) skewY(3.4268047773853) skewX(0.74113125710312) rotate(1.3790628805787) skewY(3.8706785211827) " >
<circle cx="0" cy="0" r="100" />
<g transform="translate(100.0,-2.4492935982947e-14) translate(-72.267572373375,-69.118723825452) " >
<polygon points="100.0 -2.2043642384652e-13 -100.0 1.1021821192326e-13 100.0 -7.3478807948841e-14 5.5109105961631e-14 100.0 30.901699437495 -95.105651629515 -100.0 3.6739403974421e-14 -22.252093395631 97.492791218182 70.710678118655 70.710678118655 100.0 -2.4492935982947e-14" />
</g>
</g>
</g>
</g></svg>